<svg fill="#FFFFFF" viewBox="0 0 82 16" xmlns="http://www.w3.org/2000/svg" xmlns:xlink="http://www.w3.org/1999/xlink"><mask id="a" fill="#fff" height="16" maskUnits="userSpaceOnUse" width="82" x="0" y="0"><path d="m0 0h82v16h-82z" fill="#fff"/><path clip-rule="evenodd" d="m28.9791 11.9557-.0007-.0011c-.5721-.875-.8574-2.08926-.8787-3.62228v-.00127-2.1792c0-1.56493.2723-2.81501.8382-3.73156.5722-.93221 1.3916-1.42029 2.4471-1.42029 1.0471 0 1.8629.4656 2.4327 1.36167.5679.88087.8461 2.11929.8589 3.6933v.00075 2.10713c0 1.59514-.2677 2.85175-.8261 3.74835-.5661.9085-1.3889 1.3797-2.453 1.3797-1.026 0-1.8362-.4573-2.4184-1.3352zm3.6624-8.45802-.0004-.00078c-.1441-.27495-.3206-.46898-.5238-.59482-.2019-.12509-.4431-.19085-.7323-.19085-.2768 0-.5115.06549-.712.19194-.2022.12742-.3816.32435-.5325.60339-.3003.56338-.4629 1.41709-.467 2.58204v2.07425c0 1.16996.1604 2.03525.4617 2.61535.1512.2868.3322.4892.5373.6201.2033.1299.4422.1972.725.1972.2865 0 .525-.0631.7241-.1825.1999-.1199.3732-.3045.5144-.5657.2872-.5306.448-1.37007.4605-2.54237v-2.16898c0-1.21514-.159-2.08615-.4546-2.63748zm-29.76608-2.23892 2.22684 8.76264 2.22686-8.76264h1.87542v11.96254h-1.58591v-4.7049l.06436-2.70629-1.97654 7.41119h-1.22105l-1.96344-7.37482.06394 2.6699v4.70492h-1.5859v-11.96254zm9.52798 11.96254h-1.5859v-11.96254h1.5859zm7.7942-4.0687-.0084.2074c-.0513 1.2582-.3336 2.25-.8724 2.9511-.5436.7128-1.3201 1.069-2.3022 1.069-1.0143 0-1.8104-.4915-2.3829-1.4188l-.0003-.0005c-.5679-.9254-.8421-2.16041-.8421-3.68839v-2.09655c0-1.52322.2807-2.75149.8627-3.66717l.0004-.00057c.5918-.92424 1.4183-1.40819 2.4694-1.40819.9578 0 1.7112.36813 2.2357 1.09678.5199.71109.789 1.70957.8317 2.97226l.007.20611h-1.5949l-.0102-.18994c-.0502-.93616-.2066-1.56561-.4419-1.92293-.2228-.33826-.5538-.50782-1.0274-.50782-.2726 0-.5062.06662-.7083.19663-.2042.13131-.3875.33456-.544.62254l-.0003.00062c-.3137.57259-.4814 1.43796-.4814 2.61756v2.12038c0 1.15826.1548 2.02158.4467 2.60778.1471.2909.3202.495.5128.6262.1901.1295.4097.1954.6673.1954.5487 0 .9039-.1678 1.1192-.4733.2315-.3284.3945-.9564.4574-1.92773l.0121-.18787zm5.4775-1.06227 1.7386 4.80317v.3278h-1.6154l-1.6342-4.67756h-1.2428v4.67756h-1.5921v-11.96254h2.7898c.958 0 1.7092.31926 2.2187.9717.5008.63629.7353 1.5483.7353 2.70652 0 .73626-.13 1.38931-.3967 1.95429-.2375.50646-.5702.90898-1.0012 1.19906zm-.5926-1.69292.0007-.00113c.2578-.34798.3976-.82824.3976-1.4593 0-.72526-.132-1.23423-.3644-1.55671-.2222-.30822-.551-.46706-1.0226-.46706h-1.1725v3.984h1.1851c.4076 0 .7275-.15937.9761-.4998zm12.3022 3.80609-.713 3.0178h-1.6325l3.0615-11.96254h1.3314l3.068 11.96254h-1.632l-.7256-3.0178zm12.0005-1.0509-.0084.2074c-.0513 1.2584-.3337 2.2504-.8728 2.9515-.5436.7126-1.3198 1.0686-2.3018 1.0686-1.0143 0-1.8104-.4915-2.3829-1.4188l-.0003-.0005c-.5679-.9254-.8421-2.16041-.8421-3.68839v-2.09655c0-1.52322.2807-2.75149.8627-3.66717l.0004-.00057c.5918-.92424 1.4183-1.40819 2.4694-1.40819.9579 0 1.7114.36823 2.2359 1.09708.5198.71106.7888 1.70944.8315 2.97196l.007.20611h-1.5949l-.0102-.18994c-.0502-.93616-.2066-1.56561-.4419-1.92293-.2228-.33826-.5538-.50782-1.0274-.50782-.2726 0-.5062.06662-.7083.19663-.2042.13131-.3875.33456-.544.62254l-.0003.00062c-.3137.57259-.4814 1.43796-.4814 2.61756v2.12038c0 1.15841.155 2.02178.4469 2.60798.147.2908.3201.4949.5126.626.1901.1295.4097.1954.6673.1954.5487 0 .9039-.1678 1.1192-.4733.2315-.3284.3945-.9564.4574-1.92773l.0121-.18787zm6.3058 3.3181 1.3601 1.5383-1.2665.991-1.5238-1.6973c-.2338.0513-.4637.0774-.6892.0774-1.0398 0-1.8583-.4654-2.4431-1.3589l-.0007-.0011c-.5746-.89-.857-2.119-.8698-3.66675v-.00076-2.10526c0-1.57373.2735-2.8259.8427-3.73692.5755-.92659 1.399-1.41048 2.4583-1.41048 1.0643 0 1.8905.47016 2.4635 1.37699.566.89037.8415 2.1327.8501 3.70588v2.06579c0 1.02855-.1106 1.90871-.3365 2.63631-.1986.6468-.478 1.1785-.8451 1.5858zm-.8616-8.87465-.0003-.00079c-.1447-.27437-.3225-.46823-.5279-.59411-.2042-.12521-.4487-.19117-.7422-.19117-.2763 0-.5109.06541-.7117.19181-.2026.12744-.3825.32436-.5342.60335-.3017.56275-.465 1.41551-.4691 2.57932v2.06413c0 1.17427.1612 2.04121.4639 2.62041.1519.2867.3336.4889.5389.6198.2037.1299.4425.1972.7248.1972.2844 0 .5223-.062.7221-.1794.2006-.1179.3751-.2991.5189-.5549.2916-.5187.4573-1.34554.4741-2.50587v-2.21438c0-1.21397-.1599-2.08396-.4568-2.63461zm9.3558-2.33729v8.42.00072c-.0086 1.12112-.2666 2.02562-.7995 2.69082-.5402.674-1.2985 1.0098-2.249 1.0098-.9674 0-1.7302-.3252-2.2558-.9867l-.0005-.0007c-.5163-.6555-.7648-1.5684-.7733-2.71326v-.00139-8.41929h1.5795v8.3637c0 .76324.129 1.30034.3575 1.63984.2171.3117.5652.4792 1.0926.4792.5328 0 .8798-.1682 1.0924-.4789l.0001-.0002c.2325-.3391.3639-.8761.3639-1.63994v-8.3637zm2.9844 11.96254h-1.5859v-11.96254h1.5859zm5.9402-5.13097 1.7385 4.80317v.3278h-1.6155l-1.6341-4.67756h-1.2428v4.67756h-1.5922v-11.96254h2.7899c.958 0 1.7093.31926 2.2186.9717.5009.63629.7354 1.5483.7354 2.70652 0 .73607-.1299 1.38895-.3964 1.95383-.2376.50667-.5704.90935-1.0014 1.19952zm-.5928-1.69292.0008-.00113c.2578-.34798.3976-.82824.3976-1.4593 0-.72526-.132-1.23423-.3644-1.55671-.2222-.30822-.5511-.46706-1.0226-.46706h-1.1725v3.984h1.1851c.4076 0 .7275-.15937.976-.4998zm7.9467 1.47924h-3.2494v3.69815h3.7857v1.6465h-5.3715v-11.96254h5.3084v1.65445h-3.7226v3.31692h3.2494zm-42.6814.6724.9815-4.13047.9865 4.13047z" fill="#fff" fill-rule="evenodd"/></mask><g clip-rule="evenodd" fill-rule="evenodd"><path d="m28.9791 11.9557-.0007-.0011c-.5721-.875-.8574-2.08926-.8787-3.62228v-.00127-2.1792c0-1.56493.2723-2.81501.8382-3.73156.5722-.93221 1.3916-1.42029 2.4471-1.42029 1.0471 0 1.8629.4656 2.4327 1.36167.5679.88087.8461 2.11929.8589 3.6933v.00075 2.10713c0 1.59514-.2677 2.85175-.8261 3.74835-.5661.9085-1.3889 1.3797-2.453 1.3797-1.026 0-1.8362-.4573-2.4184-1.3352zm3.6624-8.45802-.0004-.00078c-.1441-.27495-.3206-.46898-.5238-.59482-.2019-.12509-.4431-.19085-.7323-.19085-.2768 0-.5115.06549-.712.19194-.2022.12742-.3816.32435-.5325.60339-.3003.56338-.4629 1.41709-.467 2.58204v2.07425c0 1.16996.1604 2.03525.4617 2.61535.1512.2868.3322.4892.5373.6201.2033.1299.4422.1972.725.1972.2865 0 .525-.0631.7241-.1825.1999-.1199.3732-.3045.5144-.5657.2872-.5306.448-1.37007.4605-2.54237v-2.16898c0-1.21514-.159-2.08615-.4546-2.63748zm-29.76608-2.23892 2.22684 8.76264 2.22686-8.76264h1.87542v11.96254h-1.58591v-4.7049l.06436-2.70629-1.97654 7.41119h-1.22105l-1.96344-7.37482.06394 2.6699v4.70492h-1.5859v-11.96254zm9.52798 11.96254h-1.5859v-11.96254h1.5859zm7.7942-4.0687-.0084.2074c-.0513 1.2582-.3336 2.25-.8724 2.9511-.5436.7128-1.3201 1.069-2.3022 1.069-1.0143 0-1.8104-.4915-2.3829-1.4188l-.0003-.0005c-.5679-.9254-.8421-2.16041-.8421-3.68839v-2.09655c0-1.52322.2807-2.75149.8627-3.66717l.0004-.00057c.5918-.92424 1.4183-1.40819 2.4694-1.40819.9578 0 1.7112.36813 2.2357 1.09678.5199.71109.789 1.70957.8317 2.97226l.007.20611h-1.5949l-.0102-.18994c-.0502-.93616-.2066-1.56561-.4419-1.92293-.2228-.33826-.5538-.50782-1.0274-.50782-.2726 0-.5062.06662-.7083.19663-.2042.13131-.3875.33456-.544.62254l-.0003.00062c-.3137.57259-.4814 1.43796-.4814 2.61756v2.12038c0 1.15826.1548 2.02158.4467 2.60778.1471.2909.3202.495.5128.6262.1901.1295.4097.1954.6673.1954.5487 0 .9039-.1678 1.1192-.4733.2315-.3284.3945-.9564.4574-1.92773l.0121-.18787zm5.4775-1.06227 1.7386 4.80317v.3278h-1.6154l-1.6342-4.67756h-1.2428v4.67756h-1.5921v-11.96254h2.7898c.958 0 1.7092.31926 2.2187.9717.5008.63629.7353 1.5483.7353 2.70652 0 .73626-.13 1.38931-.3967 1.95429-.2375.50646-.5702.90898-1.0012 1.19906zm-.5926-1.69292.0007-.00113c.2578-.34798.3976-.82824.3976-1.4593 0-.72526-.132-1.23423-.3644-1.55671-.2222-.30822-.551-.46706-1.0226-.46706h-1.1725v3.984h1.1851c.4076 0 .7275-.15937.9761-.4998zm12.3022 3.80609-.713 3.0178h-1.6325l3.0615-11.96254h1.3314l3.068 11.96254h-1.632l-.7256-3.0178zm12.0005-1.0509-.0084.2074c-.0513 1.2584-.3337 2.2504-.8728 2.9515-.5436.7126-1.3198 1.0686-2.3018 1.0686-1.0143 0-1.8104-.4915-2.3829-1.4188l-.0003-.0005c-.5679-.9254-.8421-2.16041-.8421-3.68839v-2.09655c0-1.52322.2807-2.75149.8627-3.66717l.0004-.00057c.5918-.92424 1.4183-1.40819 2.4694-1.40819.9579 0 1.7114.36823 2.2359 1.09708.5198.71106.7888 1.70944.8315 2.97196l.007.20611h-1.5949l-.0102-.18994c-.0502-.93616-.2066-1.56561-.4419-1.92293-.2228-.33826-.5538-.50782-1.0274-.50782-.2726 0-.5062.06662-.7083.19663-.2042.13131-.3875.33456-.544.62254l-.0003.00062c-.3137.57259-.4814 1.43796-.4814 2.61756v2.12038c0 1.15841.155 2.02178.4469 2.60798.147.2908.3201.4949.5126.626.1901.1295.4097.1954.6673.1954.5487 0 .9039-.1678 1.1192-.4733.2315-.3284.3945-.9564.4574-1.92773l.0121-.18787zm6.3058 3.3181 1.3601 1.5383-1.2665.991-1.5238-1.6973c-.2338.0513-.4637.0774-.6892.0774-1.0398 0-1.8583-.4654-2.4431-1.3589l-.0007-.0011c-.5746-.89-.857-2.119-.8698-3.66675v-.00076-2.10526c0-1.57373.2735-2.8259.8427-3.73692.5755-.92659 1.399-1.41048 2.4583-1.41048 1.0643 0 1.8905.47016 2.4635 1.37699.566.89037.8415 2.1327.8501 3.70588v2.06579c0 1.02855-.1106 1.90871-.3365 2.63631-.1986.6468-.478 1.1785-.8451 1.5858zm-.8616-8.87465-.0003-.00079c-.1447-.27437-.3225-.46823-.5279-.59411-.2042-.12521-.4487-.19117-.7422-.19117-.2763 0-.5109.06541-.7117.19181-.2026.12744-.3825.32436-.5342.60335-.3017.56275-.465 1.41551-.4691 2.57932v2.06413c0 1.17427.1612 2.04121.4639 2.62041.1519.2867.3336.4889.5389.6198.2037.1299.4425.1972.7248.1972.2844 0 .5223-.062.7221-.1794.2006-.1179.3751-.2991.5189-.5549.2916-.5187.4573-1.34554.4741-2.50587v-2.21438c0-1.21397-.1599-2.08396-.4568-2.63461zm9.3558-2.33729v8.42.00072c-.0086 1.12112-.2666 2.02562-.7995 2.69082-.5402.674-1.2985 1.0098-2.249 1.0098-.9674 0-1.7302-.3252-2.2558-.9867l-.0005-.0007c-.5163-.6555-.7648-1.5684-.7733-2.71326v-.00139-8.41929h1.5795v8.3637c0 .76324.129 1.30034.3575 1.63984.2171.3117.5652.4792 1.0926.4792.5328 0 .8798-.1682 1.0924-.4789l.0001-.0002c.2325-.3391.3639-.8761.3639-1.63994v-8.3637zm2.9844 11.96254h-1.5859v-11.96254h1.5859zm5.9402-5.13097 1.7385 4.80317v.3278h-1.6155l-1.6341-4.67756h-1.2428v4.67756h-1.5922v-11.96254h2.7899c.958 0 1.7093.31926 2.2186.9717.5009.63629.7354 1.5483.7354 2.70652 0 .73607-.1299 1.38895-.3964 1.95383-.2376.50667-.5704.90935-1.0014 1.19952zm-.5928-1.69292.0008-.00113c.2578-.34798.3976-.82824.3976-1.4593 0-.72526-.132-1.23423-.3644-1.55671-.2222-.30822-.5511-.46706-1.0226-.46706h-1.1725v3.984h1.1851c.4076 0 .7275-.15937.976-.4998zm7.9467 1.47924h-3.2494v3.69815h3.7857v1.6465h-5.3715v-11.96254h5.3084v1.65445h-3.7226v3.31692h3.2494zm-42.6814.6724.9815-4.13047.9865 4.13047z" fill="#fff"/><path d="m28.9791 11.9557-.0007-.0011c-.5721-.875-.8574-2.08926-.8787-3.62228v-.00127-2.1792c0-1.56493.2723-2.81501.8382-3.73156.5722-.93221 1.3916-1.42029 2.4471-1.42029 1.0471 0 1.8629.4656 2.4327 1.36167.5679.88087.8461 2.11929.8589 3.6933v.00075 2.10713c0 1.59514-.2677 2.85175-.8261 3.74835-.5661.9085-1.3889 1.3797-2.453 1.3797-1.026 0-1.8362-.4573-2.4184-1.3352zm3.6624-8.45802-.0004-.00078c-.1441-.27495-.3206-.46898-.5238-.59482-.2019-.12509-.4431-.19085-.7323-.19085-.2768 0-.5115.06549-.712.19194-.2022.12742-.3816.32435-.5325.60339-.3003.56338-.4629 1.41709-.467 2.58204v2.07425c0 1.16996.1604 2.03525.4617 2.61535.1512.2868.3322.4892.5373.6201.2033.1299.4422.1972.725.1972.2865 0 .525-.0631.7241-.1825.1999-.1199.3732-.3045.5144-.5657.2872-.5306.448-1.37007.4605-2.54237v-2.16898c0-1.21514-.159-2.08615-.4546-2.63748zm-29.76608-2.23892 2.22684 8.76264 2.22686-8.76264h1.87542v11.96254h-1.58591v-4.7049l.06436-2.70629-1.97654 7.41119h-1.22105l-1.96344-7.37482.06394 2.6699v4.70492h-1.5859v-11.96254zm9.52798 11.96254h-1.5859v-11.96254h1.5859zm7.7942-4.0687-.0084.2074c-.0513 1.2582-.3336 2.25-.8724 2.9511-.5436.7128-1.3201 1.069-2.3022 1.069-1.0143 0-1.8104-.4915-2.3829-1.4188l-.0003-.0005c-.5679-.9254-.8421-2.16041-.8421-3.68839v-2.09655c0-1.52322.2807-2.75149.8627-3.66717l.0004-.00057c.5918-.92424 1.4183-1.40819 2.4694-1.40819.9578 0 1.7112.36813 2.2357 1.09678.5199.71109.789 1.70957.8317 2.97226l.007.20611h-1.5949l-.0102-.18994c-.0502-.93616-.2066-1.56561-.4419-1.92293-.2228-.33826-.5538-.50782-1.0274-.50782-.2726 0-.5062.06662-.7083.19663-.2042.13131-.3875.33456-.544.62254l-.0003.00062c-.3137.57259-.4814 1.43796-.4814 2.61756v2.12038c0 1.15826.1548 2.02158.4467 2.60778.1471.2909.3202.495.5128.6262.1901.1295.4097.1954.6673.1954.5487 0 .9039-.1678 1.1192-.4733.2315-.3284.3945-.9564.4574-1.92773l.0121-.18787zm5.4775-1.06227 1.7386 4.80317v.3278h-1.6154l-1.6342-4.67756h-1.2428v4.67756h-1.5921v-11.96254h2.7898c.958 0 1.7092.31926 2.2187.9717.5008.63629.7353 1.5483.7353 2.70652 0 .73626-.13 1.38931-.3967 1.95429-.2375.50646-.5702.90898-1.0012 1.19906zm-.5926-1.69292.0007-.00113c.2578-.34798.3976-.82824.3976-1.4593 0-.72526-.132-1.23423-.3644-1.55671-.2222-.30822-.551-.46706-1.0226-.46706h-1.1725v3.984h1.1851c.4076 0 .7275-.15937.9761-.4998zm12.3022 3.80609-.713 3.0178h-1.6325l3.0615-11.96254h1.3314l3.068 11.96254h-1.632l-.7256-3.0178zm12.0005-1.0509-.0084.2074c-.0513 1.2584-.3337 2.2504-.8728 2.9515-.5436.7126-1.3198 1.0686-2.3018 1.0686-1.0143 0-1.8104-.4915-2.3829-1.4188l-.0003-.0005c-.5679-.9254-.8421-2.16041-.8421-3.68839v-2.09655c0-1.52322.2807-2.75149.8627-3.66717l.0004-.00057c.5918-.92424 1.4183-1.40819 2.4694-1.40819.9579 0 1.7114.36823 2.2359 1.09708.5198.71106.7888 1.70944.8315 2.97196l.007.20611h-1.5949l-.0102-.18994c-.0502-.93616-.2066-1.56561-.4419-1.92293-.2228-.33826-.5538-.50782-1.0274-.50782-.2726 0-.5062.06662-.7083.19663-.2042.13131-.3875.33456-.544.62254l-.0003.00062c-.3137.57259-.4814 1.43796-.4814 2.61756v2.12038c0 1.15841.155 2.02178.4469 2.60798.147.2908.3201.4949.5126.626.1901.1295.4097.1954.6673.1954.5487 0 .9039-.1678 1.1192-.4733.2315-.3284.3945-.9564.4574-1.92773l.0121-.18787zm6.3058 3.3181 1.3601 1.5383-1.2665.991-1.5238-1.6973c-.2338.0513-.4637.0774-.6892.0774-1.0398 0-1.8583-.4654-2.4431-1.3589l-.0007-.0011c-.5746-.89-.857-2.119-.8698-3.66675v-.00076-2.10526c0-1.57373.2735-2.8259.8427-3.73692.5755-.92659 1.399-1.41048 2.4583-1.41048 1.0643 0 1.8905.47016 2.4635 1.37699.566.89037.8415 2.1327.8501 3.70588v2.06579c0 1.02855-.1106 1.90871-.3365 2.63631-.1986.6468-.478 1.1785-.8451 1.5858zm-.8616-8.87465-.0003-.00079c-.1447-.27437-.3225-.46823-.5279-.59411-.2042-.12521-.4487-.19117-.7422-.19117-.2763 0-.5109.06541-.7117.19181-.2026.12744-.3825.32436-.5342.60335-.3017.56275-.465 1.41551-.4691 2.57932v2.06413c0 1.17427.1612 2.04121.4639 2.62041.1519.2867.3336.4889.5389.6198.2037.1299.4425.1972.7248.1972.2844 0 .5223-.062.7221-.1794.2006-.1179.3751-.2991.5189-.5549.2916-.5187.4573-1.34554.4741-2.50587v-2.21438c0-1.21397-.1599-2.08396-.4568-2.63461zm9.3558-2.33729v8.42.00072c-.0086 1.12112-.2666 2.02562-.7995 2.69082-.5402.674-1.2985 1.0098-2.249 1.0098-.9674 0-1.7302-.3252-2.2558-.9867l-.0005-.0007c-.5163-.6555-.7648-1.5684-.7733-2.71326v-.00139-8.41929h1.5795v8.3637c0 .76324.129 1.30034.3575 1.63984.2171.3117.5652.4792 1.0926.4792.5328 0 .8798-.1682 1.0924-.4789l.0001-.0002c.2325-.3391.3639-.8761.3639-1.63994v-8.3637zm2.9844 11.96254h-1.5859v-11.96254h1.5859zm5.9402-5.13097 1.7385 4.80317v.3278h-1.6155l-1.6341-4.67756h-1.2428v4.67756h-1.5922v-11.96254h2.7899c.958 0 1.7093.31926 2.2186.9717.5009.63629.7354 1.5483.7354 2.70652 0 .73607-.1299 1.38895-.3964 1.95383-.2376.50667-.5704.90935-1.0014 1.19952zm-.5928-1.69292.0008-.00113c.2578-.34798.3976-.82824.3976-1.4593 0-.72526-.132-1.23423-.3644-1.55671-.2222-.30822-.5511-.46706-1.0226-.46706h-1.1725v3.984h1.1851c.4076 0 .7275-.15937.976-.4998zm7.9467 1.47924h-3.2494v3.69815h3.7857v1.6465h-5.3715v-11.96254h5.3084v1.65445h-3.7226v3.31692h3.2494zm-42.6814.6724.9815-4.13047.9865 4.13047z" mask="url(#a)" stroke="#fff" stroke-width=".4"/></g></svg>